<svg xmlns="http://www.w3.org/2000/svg" viewBox="0 0 300.11 235.08"><defs><style>.cls-1{opacity:0.86;font-size:82.09px;stroke:#fff;stroke-miterlimit:10;stroke-width:0.25px;font-family:SignPainter-HouseScript, SignPainter;}.cls-1,.cls-7{fill:#fff;}.cls-2{letter-spacing:-0.02em;}.cls-3{letter-spacing:-0.08em;}.cls-4{letter-spacing:0em;}.cls-5{letter-spacing:-0.01em;}.cls-6{opacity:0.74;}</style></defs><title>Asset 3</title><g id="Layer_2" data-name="Layer 2"><g id="Layer_1-2" data-name="Layer 1"><text class="cls-1" transform="matrix(0.91, -0.47, 0.32, 0.95, 26.6, 178.03)"><tspan class="cls-2">M</tspan><tspan x="45.4" y="0">JD </tspan><tspan class="cls-3" x="138.98" y="0">T</tspan><tspan class="cls-4" x="165.5" y="0">h</tspan><tspan class="cls-5" x="196.45" y="0">i</tspan><tspan x="212.13" y="0">f</tspan></text><g class="cls-6"><path class="cls-7" d="M115.73,175.89l4.58-18.62H117.9l20,59.27a1.25,1.25,0,0,0,2.41-.67Q135,183.68,132,151.18q-.75-8.18-1.37-16.35c-.38-5.19-.91-10.43-1-15.64-.06-3.12.07-8.14,3.48-9.61,2.28-1,4.94.25,7,1.29a44.25,44.25,0,0,1,5.5,3.37c7,5,13.39,11.34,22.05,13.25,9.54,2.11,19.27-1,27.93-4.92,17.28-7.75,33.2-18.22,50.19-26.56a145.63,145.63,0,0,1,25.72-10.09A90.94,90.94,0,0,1,285,83.25c3.65-.41,7.67-1,10.88,1.26a3,3,0,0,1,1.44,3.69l.58-.74c-19.2,8.41-38.75,16-58.45,23.16s-39.41,13.83-59.19,20.54-39.35,13.33-58.89,20.41-38.9,14.57-57.94,22.86A597.1,597.1,0,0,0,7.29,202.28Q3.92,204.2.57,206.16c-1.17.69-.39,2.82,1,2.29q30.77-12.15,60.94-25.72Q92.84,169.07,122.54,154q16.78-8.52,33.34-17.48l-1.51-2A143.17,143.17,0,0,1,128,156.67l1.71,1.71c5.24-7.79,13.75-14.72,23.59-14.66a20.22,20.22,0,0,1,19.16,14.57l2.28-1-30-51.31L114.5,54.44l-17-29-2.16,1.26q27,39.36,52.6,79.59t50.08,81.5q13.74,23.2,27,46.67a1.25,1.25,0,0,0,2.16-1.26q-23.64-41.65-48.62-82.52T127.44,70Q112.7,47.59,97.53,25.45c-.9-1.31-3-.15-2.16,1.26l30,51.31,30.19,51.57,17,29a1.26,1.26,0,0,0,2.29-1,22.53,22.53,0,0,0-15-15.33c-7.74-2.49-16-.24-22.46,4.42a41.14,41.14,0,0,0-9.89,10.41,1.26,1.26,0,0,0,1.71,1.71,146,146,0,0,0,26.89-22.51,1.26,1.26,0,0,0-1.52-2q-29.09,15.72-58.86,30.11T35.47,191.85Q18.27,199.17.87,206l1,2.28A569.43,569.43,0,0,1,57.7,179.7c19-8.52,38.36-16.17,57.9-23.36s39.15-13.89,58.82-20.56,39.4-13.31,59-20.32,38.9-14.36,58-22.47c2.44-1,4.93-2,7.32-3.16,1.53-.73,1.64-2.77,1.14-4.25-1.07-3.22-4.95-4.73-8-5.12a27,27,0,0,0-6.29.24q-3.57.39-7.11,1a104.8,104.8,0,0,0-13.94,3.69c-18.71,6.31-35.61,16.79-52.86,26.18-8.91,4.85-18.09,10-28,12.67A32.59,32.59,0,0,1,168,125c-4.62-1.07-8.64-3.54-12.42-6.32s-7.2-5.71-11.09-8.17c-3.48-2.21-8.43-5.12-12.61-3.16-3.39,1.58-4.43,5.53-4.72,8.95-.42,5,.33,10.27.69,15.29q2.43,34.2,7.39,68.16,1.23,8.4,2.61,16.77l2.41-.67-20-59.26a1.26,1.26,0,0,0-2.41,0l-4.58,18.62c-.38,1.56,2,2.23,2.41.66Z"/></g></g></g></svg>